<?xml version="1.0" encoding="utf-8"?>
<!-- Generator: Adobe Illustrator 16.0.0, SVG Export Plug-In . SVG Version: 6.00 Build 0)  -->
<!DOCTYPE svg PUBLIC "-//W3C//DTD SVG 1.1//EN" "http://www.w3.org/Graphics/SVG/1.1/DTD/svg11.dtd">
<svg version="1.1" id="Layer_1" xmlns="http://www.w3.org/2000/svg" xmlns:xlink="http://www.w3.org/1999/xlink" x="0px" y="0px"
	 width="136.913px" height="136.914px" viewBox="0 0 136.913 136.914" enable-background="new 0 0 136.913 136.914"
	 xml:space="preserve">
<g>
	<g>
		<g>
			<g>
				<g>
					<circle fill="#D35387" cx="68.456" cy="68.456" r="63.333"/>
				</g>
			</g>
		</g>
	</g>
	<g>
		<g>
			<path fill="#505251" d="M76.771,105.904c-2.031-5.91-3.182-7.449-7.041-7.449c-3.809,0-5.131,1.954-7.037,7.449
				c-6.502,0.63-11.064,2.107-11.064,3.828c0,2.295,8.104,4.154,18.102,4.154s18.104-1.859,18.104-4.154
				C87.834,108.012,83.271,106.535,76.771,105.904z"/>
		</g>
		<g>
			<g>
				<path fill="#3D4040" d="M115.543,95.147c0,3.024-2.451,5.476-5.475,5.476c0,0-22.531,3.174-41.525,3.174
					c-14.541,0-39.25-3.174-39.25-3.174c-3.025,0-5.477-2.451-5.477-5.476V41.069c0-3.024,2.451-5.476,5.477-5.476h80.775
					c3.023,0,5.475,2.451,5.475,5.476V95.147z"/>
			</g>
		</g>
		<g>
			<rect x="27.516" y="39.547" fill="#5DC0C1" width="84.135" height="56.905"/>
		</g>
		<g>
			<circle fill="#FDF2F7" cx="52.655" cy="69.302" r="4.384"/>
		</g>
		<g>
			<circle fill="#FDF2F7" cx="74.76" cy="61.84" r="4.383"/>
		</g>
		<g>
			<circle fill="#FDF2F7" cx="96.585" cy="51.954" r="4.384"/>
		</g>
		<g>
			<g>
				<g>
					<path fill="#357180" d="M111.449,43.433c-3.805-0.975-6.607,2.007-10.156,5.777c-0.256,0.272-0.518,0.55-0.783,0.829
						c0.285,0.581,0.459,1.226,0.459,1.915c0,2.42-1.965,4.383-4.385,4.383c-0.805,0-1.549-0.232-2.197-0.61
						c-3.787,2.894-8.578,5.292-15.248,5.901c-0.004,0-0.012,0.002-0.016,0.002c0.002,0.071,0.02,0.138,0.02,0.21
						c0,2.421-1.963,4.384-4.383,4.384c-1.922,0-3.537-1.245-4.129-2.965c-2.494,0.593-4.971,1.234-6.881,1.73l-1.699,0.438
						c-2.07,0.528-3.936,1.048-5.646,1.634c0.395,0.657,0.635,1.418,0.635,2.241c0,2.42-1.963,4.383-4.383,4.383
						c-1.789,0-3.322-1.074-4.004-2.609c-3.043,2.377-5.748,5.784-8.723,11.139c-2.1,3.777-4.326,5.69-6.621,5.69
						c-0.047,0-0.092,0-0.137-0.002c-2.863-0.094-4.896-3.127-5.656-4.464v13.014h84.135V43.491L111.449,43.433z"/>
				</g>
				<g>
					<g>
						<path fill="#FDF7FA" d="M27.506,81.496v1.956c0.76,1.338,2.844,4.384,5.709,4.478c0.045,0.002,0.09,0.003,0.135,0.003
							c2.295,0,4.521-1.914,6.621-5.69C46.504,70.487,51.729,68.1,62.094,65.454l1.697-0.438c4.355-1.129,11.648-3.018,15.391-3.361
							c11.447-1.046,17.383-7.351,22.152-12.417c3.551-3.771,6.5-6.748,10.305-5.774l-0.006-0.871
							c-4.307-1.101-7.195,2.051-10.945,6.035C96.02,53.585,90.211,59.754,79.1,60.769c-3.814,0.35-11.148,2.25-15.531,3.387
							l-1.695,0.437c-10.623,2.711-15.979,5.159-22.68,17.218c-1.965,3.535-3.969,5.303-5.949,5.231
							c-3.055-0.099-5.189-4.531-5.211-4.576L27.506,81.496z"/>
					</g>
					<g>
						<polygon fill="#FDF7FA" points="27.516,83.438 27.516,83.438 27.512,83.43 						"/>
					</g>
				</g>
			</g>
		</g>
	</g>
</g>
</svg>
