<?xml version="1.0" encoding="utf-8"?>
<!-- Generator: Adobe Illustrator 16.0.0, SVG Export Plug-In . SVG Version: 6.00 Build 0)  -->
<!DOCTYPE svg PUBLIC "-//W3C//DTD SVG 1.1//EN" "http://www.w3.org/Graphics/SVG/1.1/DTD/svg11.dtd">
<svg version="1.1" id="Layer_1" xmlns="http://www.w3.org/2000/svg" xmlns:xlink="http://www.w3.org/1999/xlink" x="0px" y="0px"
	 width="136.913px" height="136.914px" viewBox="0 0 136.913 136.914" enable-background="new 0 0 136.913 136.914"
	 xml:space="preserve">
<g>
	<g>
		<g>
			<g>
				<circle fill="#EDBF00" cx="68.456" cy="68.458" r="63.333"/>
			</g>
		</g>
	</g>
	<g>
		<g>
			<path fill="#F3F4F5" d="M93.348,106.704c0,5.815-2.084,7.897-7.898,7.897H53.857c-5.816,0-7.898-2.082-7.898-7.897V32.989
				c0-5.815,2.082-7.897,7.898-7.897h31.592c5.814,0,7.898,2.082,7.898,7.897V106.704z"/>
			<linearGradient id="SVGID_1_" gradientUnits="userSpaceOnUse" x1="69.543" y1="33.6475" x2="69.543" y2="105.1685">
				<stop  offset="0" style="stop-color:#5978BA"/>
				<stop  offset="0.703" style="stop-color:#4E9DB8"/>
				<stop  offset="1" style="stop-color:#379CC9"/>
			</linearGradient>
			<rect x="48.152" y="33.647" fill="url(#SVGID_1_)" width="42.781" height="71.521"/>
			<g>
				<path fill="#6CC077" d="M53.074,63.195h33.264c0.816,0,1.475-0.66,1.475-1.474v-5.349l-2.754-2.754c0,0-1.564-2.017-3.018-1.935
					c-1.311,0.075-2.836,1.713-3.129,2.037L77.08,51.89c0,0-1.832-2.363-3.537-2.269c-1.705,0.098-3.74,2.472-3.74,2.472
					l-0.557,0.558l-3.447-3.448c0,0-2.254-2.904-4.35-2.786c-2.092,0.118-4.596,3.034-4.596,3.034l-5.256,5.256v7.016
					C51.598,62.535,52.26,63.195,53.074,63.195z"/>
				<path fill="#DBF0F5" d="M61.449,46.416c2.096-0.118,4.35,2.786,4.35,2.786l3.447,3.448l0.557-0.558c0,0,2.035-2.374,3.74-2.472
					c1.705-0.095,3.537,2.269,3.537,2.269l1.832,1.832c0.293-0.324,1.818-1.962,3.129-2.037c1.453-0.082,3.018,1.935,3.018,1.935
					l2.754,2.754V42.498c0-0.815-0.658-1.477-1.475-1.477H53.074c-0.814,0-1.477,0.661-1.477,1.477v12.208l5.256-5.256
					C56.854,49.45,59.357,46.534,61.449,46.416z"/>
			</g>
			<path fill="#B8B9BA" d="M74.385,28.089c0,0.333-0.391,0.6-0.871,0.6h-7.719c-0.482,0-0.873-0.267-0.873-0.6l0,0
				c0-0.33,0.391-0.599,0.873-0.599h7.719C73.994,27.49,74.385,27.759,74.385,28.089L74.385,28.089z"/>
			<g>
				<circle fill="#FFFFFF" cx="69.64" cy="88.575" r="1.206"/>
				<circle fill="#FFFFFF" cx="74.027" cy="88.575" r="0.768"/>
				<circle fill="#FFFFFF" cx="77.537" cy="88.575" r="0.768"/>
				<circle fill="#FFFFFF" cx="61.741" cy="88.575" r="0.769"/>
				<circle fill="#FFFFFF" cx="65.252" cy="88.575" r="0.768"/>
			</g>
			<rect x="48.152" y="33.647" opacity="0.5" fill="#202121" width="42.762" height="3.585"/>
			<circle fill="#FFFFFF" cx="84.517" cy="35.33" r="0.913"/>
			<circle fill="#FFFFFF" cx="50.347" cy="35.33" r="0.913"/>
			<circle fill="#FFFFFF" cx="88.685" cy="35.33" r="0.913"/>
			<g>
				<defs>
					<rect id="SVGID_2_" x="48.152" y="33.647" width="42.781" height="71.521"/>
				</defs>
				<clipPath id="SVGID_3_">
					<use xlink:href="#SVGID_2_"  overflow="visible"/>
				</clipPath>
			</g>
			<g>
				<path fill="#B5DBAF" d="M58.633,82.005c0,0.814-0.66,1.474-1.475,1.474h-4.305c-0.816,0-1.477-0.659-1.477-1.474v-4.306
					c0-0.816,0.66-1.477,1.477-1.477h4.305c0.814,0,1.475,0.66,1.475,1.477V82.005z"/>
				<path fill="#F6A2A3" d="M68.396,82.005c0,0.814-0.662,1.474-1.477,1.474h-4.303c-0.816,0-1.477-0.659-1.477-1.474v-4.306
					c0-0.816,0.66-1.477,1.477-1.477h4.303c0.814,0,1.477,0.66,1.477,1.477V82.005z"/>
				<path fill="#67B8CB" d="M78.158,82.005c0,0.814-0.662,1.474-1.475,1.474h-4.305c-0.814,0-1.479-0.659-1.479-1.474v-4.306
					c0-0.816,0.664-1.477,1.479-1.477h4.305c0.812,0,1.475,0.66,1.475,1.477V82.005z"/>
				<path fill="#F5E554" d="M87.92,82.005c0,0.814-0.66,1.474-1.475,1.474h-4.305c-0.816,0-1.475-0.659-1.475-1.474v-4.306
					c0-0.816,0.658-1.477,1.475-1.477h4.305c0.814,0,1.475,0.66,1.475,1.477V82.005z"/>
			</g>
			<path fill="none" stroke="#67B8CB" stroke-width="0.5" stroke-miterlimit="10" d="M87.811,69.72c0,0.813-0.658,1.473-1.475,1.473
				H53.072c-0.814,0-1.477-0.659-1.477-1.473v-1.674c0-0.815,0.662-1.476,1.477-1.476h33.264c0.816,0,1.475,0.66,1.475,1.476V69.72z
				"/>
			<g>
				<circle fill="#DBF0F5" cx="84.373" cy="68.42" r="1.096"/>
				<path fill="#DBF0F5" d="M86.355,70.415c-0.086,0.085-0.25,0.061-0.365-0.056l-1.232-1.232c-0.115-0.114-0.141-0.277-0.055-0.363
					l0.109-0.109c0.086-0.087,0.25-0.061,0.365,0.056l1.232,1.23c0.115,0.116,0.141,0.279,0.053,0.365L86.355,70.415z"/>
			</g>
			<g>
				<path fill="#67B8CB" d="M56.957,98.483c0,0.662-0.537,1.2-1.201,1.2H52.25c-0.664,0-1.203-0.538-1.203-1.2v-3.508
					c0-0.663,0.539-1.201,1.203-1.201h3.506c0.664,0,1.201,0.538,1.201,1.201V98.483z"/>
				<path fill="#F5E554" d="M64.91,98.483c0,0.662-0.541,1.2-1.203,1.2h-3.506c-0.664,0-1.201-0.538-1.201-1.2v-3.508
					c0-0.663,0.537-1.201,1.201-1.201h3.506c0.662,0,1.203,0.538,1.203,1.201V98.483z"/>
				<path fill="#B5DBAF" d="M72.859,98.483c0,0.662-0.539,1.2-1.201,1.2h-3.506c-0.664,0-1.203-0.538-1.203-1.2v-3.508
					c0-0.663,0.539-1.201,1.203-1.201h3.506c0.662,0,1.201,0.538,1.201,1.201V98.483z"/>
				<path fill="#D3D4E3" d="M80.811,98.483c0,0.662-0.539,1.2-1.201,1.2h-3.506c-0.666,0-1.201-0.538-1.201-1.2v-3.508
					c0-0.663,0.535-1.201,1.201-1.201h3.506c0.662,0,1.201,0.538,1.201,1.201V98.483z"/>
				<path fill="#F6A2A3" d="M88.709,98.483c0,0.662-0.539,1.2-1.201,1.2h-3.506c-0.666,0-1.203-0.538-1.203-1.2v-3.508
					c0-0.663,0.537-1.201,1.203-1.201h3.506c0.662,0,1.201,0.538,1.201,1.201V98.483z"/>
			</g>
			<path fill="none" stroke="#B8B9BA" stroke-width="0.5" stroke-miterlimit="10" d="M74.463,110.35
				c0,0.892-0.543,1.615-1.213,1.615h-7.117c-0.668,0-1.211-0.724-1.211-1.615v-1.146c0-0.893,0.543-1.615,1.211-1.615h7.117
				c0.67,0,1.213,0.723,1.213,1.615V110.35z"/>
			<circle fill="#B8B9BA" cx="75.672" cy="28.133" r="0.658"/>
			<circle fill="#B8B9BA" cx="77.428" cy="28.133" r="0.658"/>
			<circle fill="#B8B9BA" cx="83.734" cy="28.407" r="0.885"/>
		</g>
	</g>
</g>
</svg>
