<?xml version="1.0" encoding="utf-8"?>
<!-- Generator: Adobe Illustrator 16.0.0, SVG Export Plug-In . SVG Version: 6.00 Build 0)  -->
<!DOCTYPE svg PUBLIC "-//W3C//DTD SVG 1.1//EN" "http://www.w3.org/Graphics/SVG/1.1/DTD/svg11.dtd">
<svg version="1.1" id="Layer_1" xmlns="http://www.w3.org/2000/svg" xmlns:xlink="http://www.w3.org/1999/xlink" x="0px" y="0px"
	 width="136.914px" height="136.914px" viewBox="0 0 136.914 136.914" enable-background="new 0 0 136.914 136.914"
	 xml:space="preserve">
<g>
	<g>
		<g>
			<g>
				<g>
					<circle fill="#2DB58E" cx="68.456" cy="68.457" r="63.333"/>
				</g>
			</g>
		</g>
	</g>
	<g>
		<g>
			<g>
				<path fill="#D35959" d="M69.437,28.656c-22.37,0-40.504,18.135-40.504,40.504s18.134,40.504,40.504,40.504
					c22.369,0,40.504-18.135,40.504-40.504S91.806,28.656,69.437,28.656z M69.437,103.664c-19.057,0-34.504-15.448-34.504-34.504
					S50.38,34.656,69.437,34.656c19.056,0,34.504,15.448,34.504,34.504S88.492,103.664,69.437,103.664z"/>
			</g>
		</g>
		<g>
			<g>
				<path fill="#D35959" d="M69.437,40.156c-16.019,0-29.004,12.986-29.004,29.004s12.985,29.004,29.004,29.004
					S98.44,85.178,98.44,69.16S85.455,40.156,69.437,40.156z M69.437,93.867c-13.646,0-24.708-11.062-24.708-24.707
					s11.062-24.707,24.708-24.707S94.144,55.515,94.144,69.16S83.082,93.867,69.437,93.867z"/>
			</g>
		</g>
		<g>
			<g>
				<path fill="#CD4F4F" d="M69.437,50.156c-10.496,0-19.004,8.509-19.004,19.004s8.508,19.004,19.004,19.004
					c10.495,0,19.004-8.509,19.004-19.004S79.932,50.156,69.437,50.156z M69.437,84.349c-8.389,0-15.189-6.8-15.189-15.188
					s6.801-15.188,15.189-15.188s15.188,6.8,15.188,15.188S77.825,84.349,69.437,84.349z"/>
			</g>
		</g>
		<g>
			<g>
				<path fill="#C54342" d="M69.437,75.523c-3.515,0-6.363-2.849-6.363-6.363s2.849-6.363,6.363-6.363
					c3.514,0,6.362,2.849,6.362,6.363S72.95,75.523,69.437,75.523z"/>
			</g>
		</g>
		<g>
			<g>
				<polygon fill="#C93435" points="89.482,50.309 99.465,52.612 115.974,36.103 105.992,33.799 				"/>
			</g>
		</g>
		<g>
			<g>
				<polygon fill="#E79E2D" points="108.712,35.227 107.711,31.395 103.88,30.395 66.981,67.291 66.981,72.123 71.814,72.123 				
					"/>
			</g>
			<g>
				<polygon fill="#F2BE3E" points="107.711,31.395 103.88,30.395 66.981,67.291 66.981,72.123 				"/>
			</g>
			<g>
				<polygon fill="#F9CA62" points="108.707,35.354 104.693,34.388 103.749,30.397 107.763,31.364 				"/>
			</g>
		</g>
		<g>
			<g>
				<polygon fill="#C93435" points="76.983,47.475 86.965,49.778 103.475,33.269 93.492,30.965 				"/>
			</g>
		</g>
	</g>
</g>
</svg>
